<svg width="1200" height="500" viewBox="0 0 1200 500" fill="none" xmlns="http://www.w3.org/2000/svg">
  <rect width="1200" height="500" fill="#F4F7F5"/>
  <defs>
    <marker id="arrow" markerWidth="10" markerHeight="10" refX="9" refY="5" orient="auto"><path d="M0 0L10 5L0 10V0Z" fill="#5E746B"/></marker>
    <style>
      .title { font: 700 28px Arial, 'PingFang SC', 'Microsoft YaHei', sans-serif; fill: #17241F; }
      .label { font: 700 17px Arial, 'PingFang SC', 'Microsoft YaHei', sans-serif; fill: #17241F; }
      .small { font: 13px Arial, 'PingFang SC', 'Microsoft YaHei', sans-serif; fill: #4C6259; }
      .arrow { stroke: #5E746B; stroke-width: 2.2; marker-end: url(#arrow); }
    </style>
  </defs>
  <text x="600" y="58" text-anchor="middle" class="title">混合召回：语义、关键词与重排协作</text>
  <rect x="64" y="190" width="164" height="78" rx="12" fill="#E4F3EF" stroke="#6AB6A3" stroke-width="2"/>
  <text x="146" y="222" text-anchor="middle" class="label">用户问题</text>
  <text x="146" y="246" text-anchor="middle" class="small">VPN 怎么申请？</text>
  <rect x="310" y="116" width="210" height="92" rx="12" fill="#EEF4F8" stroke="#8BAFCA" stroke-width="2"/>
  <text x="415" y="150" text-anchor="middle" class="label">Milvus 向量召回</text>
  <text x="415" y="174" text-anchor="middle" class="small">理解同义词与口语表达</text>
  <rect x="310" y="292" width="210" height="92" rx="12" fill="#EEF4F8" stroke="#8BAFCA" stroke-width="2"/>
  <text x="415" y="326" text-anchor="middle" class="label">OpenSearch BM25</text>
  <text x="415" y="350" text-anchor="middle" class="small">匹配 VPN、SSO、错误码等术语</text>
  <line x1="228" y1="216" x2="306" y2="164" class="arrow"/>
  <line x1="228" y1="242" x2="306" y2="334" class="arrow"/>
  <rect x="610" y="190" width="192" height="78" rx="12" fill="#F2F5F3" stroke="#A8B9B0" stroke-width="2"/>
  <text x="706" y="222" text-anchor="middle" class="label">RRF 融合去重</text>
  <text x="706" y="246" text-anchor="middle" class="small">按 chunk_id 合并候选</text>
  <line x1="520" y1="164" x2="606" y2="216" class="arrow"/>
  <line x1="520" y1="334" x2="606" y2="242" class="arrow"/>
  <rect x="892" y="190" width="244" height="78" rx="12" fill="#FFF5E2" stroke="#E9B864" stroke-width="2"/>
  <text x="1014" y="222" text-anchor="middle" class="label">qwen3-vl-rerank</text>
  <text x="1014" y="246" text-anchor="middle" class="small">低分拒答，高分才调用 LLM</text>
  <line x1="802" y1="229" x2="888" y2="229" class="arrow"/>
  <text x="600" y="450" text-anchor="middle" class="small">权限过滤在 Milvus 与 OpenSearch 两侧同时执行，避免无权限 Chunk 进入重排或生成。</text>
</svg>
